<svg xmlns="http://www.w3.org/2000/svg" width="139" height="32" viewBox="0 0 139 32" fill="none">
  <path d="M0.43925 28.4165L4.39566 25.6073C4.48488 25.528 4.56472 25.528 4.63281 25.6073L4.91222 25.9355C4.96623 26.008 4.96153 26.0781 4.89109 26.1438L1.34793 28.5841L4.89109 31.0243C4.96623 31.0832 4.97327 31.1511 4.91222 31.2235L4.63281 31.5722C4.56472 31.6378 4.49193 31.6446 4.41679 31.5925L0.43925 28.7652C0.371158 28.7063 0.335938 28.6452 0.335938 28.5863C0.335938 28.5207 0.371158 28.4641 0.43925 28.4165Z" fill="#004A8D"/>
  <path d="M47.4013 25.168C47.4483 25.0684 47.5257 25.0186 47.6291 25.0186H48.1128C48.1808 25.0186 48.2278 25.0367 48.2513 25.0729C48.2748 25.1091 48.2701 25.1544 48.2349 25.2064L44.842 31.8504C44.795 31.95 44.7222 31.9998 44.6259 31.9998H44.1305C43.9849 31.9998 43.945 31.941 44.0061 31.821L47.399 25.168H47.4013Z" fill="#004A8D"/>
  <path d="M53.5011 28.7675L49.5095 31.5926C49.4202 31.6651 49.3475 31.6583 49.2935 31.5723L49.0469 31.2237C48.9859 31.1444 48.9929 31.0788 49.068 31.0245L52.6065 28.5887L49.068 26.1529C48.9929 26.1009 48.9859 26.0307 49.0469 25.9447L49.2935 25.6164C49.3615 25.5508 49.4343 25.544 49.5095 25.5961L53.5011 28.4212C53.5692 28.4732 53.6044 28.5298 53.6044 28.591C53.6044 28.6634 53.5692 28.7245 53.5011 28.7698V28.7675Z" fill="#004A8D"/>
  <path d="M12.1029 30.3029H13.075C13.3803 30.3029 13.6315 30.5428 13.6315 30.8394V31.3759C13.6315 31.6701 13.3826 31.9124 13.075 31.9124H8.3508C8.04556 31.9124 7.79432 31.6724 7.79432 31.3759V31.1087C7.79432 30.8145 7.54543 30.5722 7.23784 30.5722H6.96078C6.65553 30.5722 6.4043 30.3323 6.4043 30.0357V26.819C6.4043 26.5247 6.65319 26.2825 6.96078 26.2825H7.23784C7.54309 26.2825 7.79432 26.0425 7.79432 25.746V25.4789C7.79432 25.1846 8.04321 24.9424 8.3508 24.9424H13.075C13.3803 24.9424 13.6315 25.1823 13.6315 25.4789V26.0154C13.6315 26.3097 13.3826 26.5519 13.075 26.5519H8.62787C8.32263 26.5519 8.07139 26.7918 8.07139 27.0884V29.7686C8.07139 30.0629 8.32028 30.3051 8.62787 30.3051H12.1029V30.3029Z" fill="#004A8D"/>
  <path d="M26.4311 27.6386H26.9876C27.2928 27.6386 27.544 27.8785 27.544 28.1751V29.7823C27.544 30.0766 27.7929 30.3188 28.1005 30.3188H30.8806C31.1858 30.3188 31.4371 30.0788 31.4371 29.7823V27.1021C31.4371 26.8078 31.1882 26.5656 30.8806 26.5656H26.4334C26.1282 26.5656 25.877 26.3256 25.877 26.0291V25.4926C25.877 25.1983 26.1258 24.9561 26.4334 24.9561H31.1576C31.4629 24.9561 31.7141 25.196 31.7141 25.4926V25.7597C31.7141 26.054 31.963 26.2962 32.2706 26.2962H32.5477C32.8529 26.2962 33.1042 26.5361 33.1042 26.8327V30.0494C33.1042 30.3437 32.8553 30.5859 32.5477 30.5859H32.2706C31.9654 30.5859 31.7141 30.8259 31.7141 31.1224V31.3895C31.7141 31.6838 31.4652 31.926 31.1576 31.926H26.4334C26.1282 31.926 25.877 31.6861 25.877 31.3895V28.1728C25.877 27.8785 26.1258 27.6363 26.4334 27.6363L26.4311 27.6386Z" fill="#004A8D"/>
  <path d="M40.8823 29.2338H37.8251C37.5199 29.2338 37.2687 29.4737 37.2687 29.7703C37.2687 30.0645 37.5175 30.3068 37.8251 30.3068H42.2723C42.5775 30.3068 42.8288 30.5467 42.8288 30.8433V31.3798C42.8288 31.674 42.5799 31.9163 42.2723 31.9163H37.5481C37.2428 31.9163 36.9916 31.6763 36.9916 31.3798V31.1126C36.9916 30.8184 36.7427 30.5761 36.4351 30.5761H36.158C35.8528 30.5761 35.6016 30.3362 35.6016 30.0396V26.8229C35.6016 26.5286 35.8505 26.2864 36.158 26.2864H36.4351C36.7403 26.2864 36.9916 26.0465 36.9916 25.7499V25.4828C36.9916 25.1885 37.2405 24.9463 37.5481 24.9463H42.2723C42.5775 24.9463 42.8288 25.1862 42.8288 25.4828V26.0193C42.8288 26.3136 42.5799 26.5558 42.2723 26.5558H37.8251C37.5199 26.5558 37.2687 26.7957 37.2687 27.0923C37.2687 27.3866 37.5175 27.6288 37.8251 27.6288H40.8823C41.1875 27.6288 41.4387 27.8687 41.4387 28.1653V28.7018C41.4387 28.9961 41.1898 29.2383 40.8823 29.2383V29.2338Z" fill="#004A8D"/>
  <path d="M21.6929 29.1129V27.1027C21.6929 26.8084 21.444 26.5662 21.1364 26.5662H18.3564C18.0511 26.5662 17.7999 26.8062 17.7999 27.1027V29.783C17.7999 30.0772 18.0488 30.3195 18.3564 30.3195H21.1364C21.4417 30.3195 21.6929 30.0795 21.6929 29.783V29.1129ZM16.6893 26.2991H16.9664C17.2716 26.2991 17.5228 26.0591 17.5228 25.7626V25.4955C17.5228 25.2012 17.7717 24.959 18.0793 24.959H21.4159C21.7211 24.959 21.9723 25.1989 21.9723 25.4955V25.7626C21.9723 26.0569 22.2212 26.2991 22.5288 26.2991H22.8059C23.1111 26.2991 23.3624 26.5391 23.3624 26.8356V30.0523C23.3624 30.3466 23.1135 30.5888 22.8059 30.5888H22.5288C22.2236 30.5888 21.9723 30.8288 21.9723 31.1253V31.3925C21.9723 31.6867 21.7234 31.929 21.4159 31.929H18.0793C17.7741 31.929 17.5228 31.689 17.5228 31.3925V31.1253C17.5228 30.8311 17.2739 30.5888 16.9664 30.5888H16.6893C16.384 30.5888 16.1328 30.3489 16.1328 30.0523V26.8356C16.1328 26.5413 16.3817 26.2991 16.6893 26.2991Z" fill="#004A8D"/>
  <path d="M87.2422 18.9801V2.44824H88.8107V17.6106H97.8247V18.9801H87.2422Z" fill="#004A8D"/>
  <path d="M103.724 19.3099C102.891 19.3099 102.137 19.1718 101.458 18.8957C100.78 18.6195 100.247 18.2143 99.8546 17.68C99.4625 17.1458 99.2676 16.4984 99.2676 15.7423C99.2676 14.9862 99.4625 14.3343 99.8546 13.8295C100.247 13.3247 100.777 12.9489 101.447 12.6953C102.116 12.4441 102.858 12.3173 103.675 12.3173H108.035V11.396C108.035 10.4678 107.758 9.74345 107.202 9.2228C106.645 8.70441 105.837 8.44408 104.776 8.44408C103.715 8.44408 102.902 8.69309 102.289 9.18884C101.677 9.6846 101.263 10.3501 101.052 11.1854L99.6315 10.7848C99.8264 10.1079 100.139 9.49671 100.561 8.95568C100.986 8.41239 101.55 7.98002 102.252 7.65631C102.954 7.33486 103.795 7.17188 104.776 7.17188C106.279 7.17188 107.441 7.54992 108.268 8.306C109.092 9.06208 109.505 10.117 109.505 11.4707V17.0439C109.505 17.517 109.733 17.7525 110.191 17.7525H111.341V18.9794H109.773C109.265 18.9794 108.866 18.8345 108.573 18.5425C108.279 18.2505 108.131 17.8543 108.131 17.3495V17.1843H107.887C107.673 17.5306 107.401 17.8702 107.065 18.2007C106.73 18.5312 106.293 18.7983 105.755 19.0043C105.215 19.208 104.539 19.3122 103.722 19.3122L103.724 19.3099ZM103.82 18.0332C105.077 18.0332 106.093 17.6665 106.87 16.9353C107.645 16.2041 108.035 15.1673 108.035 13.8295V13.5465H103.701C102.851 13.5465 102.146 13.7231 101.583 14.0785C101.019 14.4339 100.737 14.9794 100.737 15.7197C100.737 16.4599 101.026 17.0304 101.606 17.431C102.186 17.8317 102.926 18.0332 103.823 18.0332H103.82Z" fill="#004A8D"/>
  <path d="M119.893 19.3106C118.585 19.3106 117.571 19.0616 116.843 18.5659C116.115 18.0701 115.582 17.5065 115.239 16.8772H114.946V18.9801H113.525V2.44824H114.995V9.50876H115.289C115.5 9.11488 115.798 8.74137 116.183 8.38596C116.566 8.03282 117.066 7.7408 117.677 7.51217C118.29 7.28353 119.027 7.17035 119.893 7.17035C120.971 7.17035 121.943 7.4103 122.807 7.89021C123.674 8.37012 124.359 9.05602 124.864 9.94566C125.369 10.8353 125.622 11.8857 125.622 13.099V13.382C125.622 14.5953 125.366 15.6457 124.85 16.5353C124.336 17.425 123.645 18.1109 122.779 18.5908C121.913 19.0707 120.95 19.3106 119.889 19.3106H119.893ZM119.55 18.0339C120.905 18.0339 122.004 17.6174 122.845 16.7821C123.685 15.9468 124.106 14.7991 124.106 13.3344V13.1466C124.106 11.6819 123.685 10.5342 122.845 9.69892C122.004 8.86361 120.905 8.44708 119.55 8.44708C118.196 8.44708 117.118 8.86361 116.268 9.69892C115.418 10.5342 114.995 11.6819 114.995 13.1466V13.3344C114.995 14.7991 115.42 15.949 116.268 16.7821C117.118 17.6174 118.212 18.0339 119.55 18.0339Z" fill="#004A8D"/>
  <path d="M133.46 19.3099C132.024 19.3099 130.795 18.9794 129.774 18.3184C128.753 17.6574 128.128 16.564 127.9 15.036L129.344 14.7757C129.476 15.611 129.741 16.2675 130.14 16.7474C130.54 17.2273 131.03 17.5691 131.61 17.7751C132.19 17.9788 132.805 18.083 133.46 18.083C134.44 18.083 135.229 17.8906 135.825 17.5035C136.421 17.1186 136.72 16.5867 136.72 15.9098C136.72 15.233 136.438 14.7372 135.874 14.4701C135.311 14.203 134.564 13.9902 133.632 13.8317L132.505 13.6438C131.753 13.5171 131.075 13.3246 130.471 13.0643C129.868 12.804 129.389 12.4531 129.039 12.014C128.687 11.5725 128.513 11.0225 128.513 10.3614C128.513 9.36994 128.917 8.59122 129.725 8.02303C130.533 7.4571 131.608 7.17188 132.946 7.17188C134.285 7.17188 135.391 7.46616 136.217 8.05699C137.041 8.64782 137.56 9.50124 137.771 10.6195L136.4 10.9025C136.236 9.9902 135.848 9.34278 135.236 8.967C134.623 8.58896 133.86 8.40107 132.946 8.40107C132.033 8.40107 131.328 8.56632 130.791 8.89683C130.253 9.22733 129.983 9.71629 129.983 10.3614C129.983 11.0066 130.227 11.4526 130.718 11.7423C131.209 12.0343 131.878 12.2494 132.726 12.392L133.853 12.5799C134.67 12.7067 135.405 12.89 136.057 13.1345C136.71 13.379 137.229 13.7208 137.612 14.1622C137.995 14.6036 138.187 15.1854 138.187 15.9098C138.187 16.9964 137.762 17.834 136.914 18.4248C136.064 19.0156 134.914 19.3099 133.46 19.3099Z" fill="#004A8D"/>
  <path d="M9.73019 7.78718C10.8103 8.03392 11.7683 8.31688 12.6042 8.63607C13.4377 8.95525 14.1445 9.32877 14.7221 9.7634C15.2997 10.1958 15.7388 10.7142 16.0417 11.314C16.3446 11.9139 16.4948 12.6225 16.4948 13.4351V13.4872C16.4948 14.4244 16.3023 15.2506 15.9172 15.966C15.5321 16.6813 14.9921 17.288 14.2947 17.7815C13.5974 18.2772 12.7732 18.653 11.8199 18.9088C10.8666 19.1646 9.81237 19.2936 8.65949 19.2936C5.41453 19.2936 2.52882 18.2953 0 16.2987L2.77771 13.3831C3.25435 13.7362 3.72161 14.0509 4.17947 14.3248C4.63734 14.5987 5.10459 14.8341 5.58124 15.0265C6.05789 15.2212 6.55332 15.3706 7.06519 15.477C7.57705 15.5834 8.13823 15.6355 8.74167 15.6355C9.71375 15.6355 10.4698 15.4815 11.0099 15.1714C11.5499 14.8635 11.8199 14.4334 11.8199 13.8856V13.8336C11.8199 13.5687 11.7824 13.3355 11.7096 13.1318C11.6368 12.9281 11.4654 12.7334 11.2 12.5478C10.9347 12.3621 10.5449 12.181 10.0307 12.0045C9.51652 11.8279 8.81211 11.6423 7.91282 11.4476C6.83038 11.2009 5.86065 10.9405 4.99893 10.6666C4.13721 10.3927 3.39523 10.0441 2.77301 9.62078C2.15078 9.19747 1.67414 8.67002 1.34307 8.04298C1.01434 7.41593 0.847634 6.63495 0.847634 5.69777V5.6457C0.847634 4.79681 1.03078 4.02488 1.39707 3.3254C1.76336 2.62817 2.27758 2.03508 2.93737 1.55064C3.59716 1.06395 4.3861 0.685905 5.30183 0.409732C6.21755 0.135823 7.2272 0 8.32607 0C8.9483 0 9.57757 0.0611203 10.2092 0.185625C10.8408 0.310129 11.3597 0.416523 11.7636 0.504808V4.42782C11.3409 4.26936 10.8056 4.10185 10.1552 3.92528C9.50478 3.74871 8.86612 3.66043 8.24389 3.66043C7.3446 3.66043 6.66837 3.81436 6.20816 4.12449C5.7503 4.43462 5.52019 4.81718 5.52019 5.27672V5.32878C5.52019 5.64797 5.5648 5.91282 5.65638 6.12335C5.74795 6.33614 5.94049 6.53534 6.23399 6.7187C6.52749 6.90433 6.95248 7.07637 7.51131 7.23483C8.07014 7.39329 8.80742 7.57891 9.72549 7.7917L9.73019 7.78718Z" fill="#004A8D"/>
  <path d="M28.721 18.7617C27.8405 18.9745 27.1267 19.1013 26.5772 19.1465C26.0278 19.1895 25.5699 19.2122 25.2037 19.2122C23.9944 19.2122 22.8979 19.0311 21.9188 18.6689C20.9373 18.3067 20.0944 17.8042 19.39 17.159C18.6832 16.5138 18.1385 15.7419 17.7534 14.8387C17.3683 13.9377 17.1758 12.9485 17.1758 11.871C17.1758 10.7934 17.373 9.88342 17.7675 8.98246C18.1619 8.0815 18.7114 7.29599 19.4181 6.62367C20.1225 5.95135 20.9725 5.42164 21.961 5.03228C22.9496 4.64292 24.0414 4.44824 25.2318 4.44824C26.6242 4.44824 27.817 4.66103 28.8055 5.08435C29.794 5.50766 30.6064 6.07812 31.2381 6.79345C31.8697 7.50878 32.3369 8.33051 32.6398 9.25863C32.9427 10.1868 33.093 11.1443 33.093 12.1336V12.1856C33.093 12.3803 33.0883 12.5478 33.0789 12.6882C33.0695 12.8285 33.0554 12.9892 33.0366 13.1658H21.5713C21.8084 14.0668 22.2804 14.7685 22.9871 15.2733C23.6915 15.7759 24.5227 16.0475 25.476 16.0815C25.7132 16.0996 25.9386 16.1041 26.1499 16.0951C26.3612 16.086 26.589 16.0679 26.8379 16.043C27.0868 16.0181 27.3591 15.9683 27.662 15.8981C27.9649 15.8279 28.3171 15.7396 28.721 15.6333V18.7617ZM25.2835 7.70799C24.2762 7.70799 23.4544 7.97737 22.8228 8.51614C22.1911 9.0549 21.7732 9.78382 21.5713 10.7029H28.883C28.7374 9.80193 28.357 9.07754 27.7419 8.52972C27.1267 7.9819 26.3072 7.70799 25.2811 7.70799H25.2835Z" fill="#004A8D"/>
  <path d="M49.375 18.8918H44.6179V11.0186C44.6179 10.6655 44.571 10.3033 44.4794 9.93207C44.3878 9.56082 44.2328 9.22579 44.0121 8.92471C43.7914 8.62364 43.4979 8.37689 43.1316 8.18221C42.7653 7.98753 42.3075 7.8902 41.758 7.8902C41.2086 7.8902 40.7554 7.98753 40.3962 8.18221C40.0393 8.37689 39.7505 8.62364 39.5298 8.92471C39.309 9.22579 39.1541 9.56082 39.0625 9.93207C38.9709 10.3033 38.9263 10.6655 38.9263 11.0186V18.8918H34.1152V11.3107C34.1152 10.3395 34.2702 9.43405 34.5825 8.59421C34.8948 7.75437 35.3667 7.02546 35.9983 6.40746C36.63 5.78947 37.4236 5.30277 38.3769 4.94963C39.3302 4.59649 40.4572 4.41992 41.758 4.41992C43.0588 4.41992 44.1648 4.59649 45.1251 4.94963C46.0878 5.30277 46.8791 5.78947 47.5036 6.40746C48.1259 7.02546 48.5931 7.75437 48.9054 8.59421C49.2177 9.43405 49.3727 10.3395 49.3727 11.3107V18.8918H49.375Z" fill="#004A8D"/>
  <path d="M58.1933 4.47394C60.7785 4.47394 62.6639 5.01723 63.8567 6.10382C65.0472 7.1904 65.6436 8.69803 65.6436 10.6222V18.9187H61.0532V17.3545C60.4662 17.9204 59.7665 18.3664 58.9494 18.6923C58.1346 19.0183 57.1484 19.1836 55.9932 19.1836C55.2043 19.1836 54.467 19.0862 53.779 18.8938C53.0911 18.6991 52.4876 18.4184 51.964 18.0472C51.4427 17.6782 51.0295 17.2232 50.7266 16.6867C50.4237 16.1502 50.2734 15.5277 50.2734 14.8236V14.7716C50.2734 13.9974 50.4378 13.3228 50.7689 12.7501C51.0976 12.1774 51.5625 11.7065 52.1565 11.3353C52.7529 10.9663 53.462 10.6878 54.2862 10.5022C55.1104 10.3166 56.019 10.2238 57.0076 10.2238C57.8505 10.2238 58.5925 10.2758 59.2335 10.3822C59.8745 10.4864 60.4897 10.6267 61.0743 10.801V10.5611C61.0743 9.70765 60.7761 9.05796 60.1821 8.61201C59.5857 8.16832 58.6934 7.94422 57.5006 7.94422C56.5098 7.94422 55.6222 8.0325 54.8333 8.20907V4.73653C55.3287 4.64825 55.85 4.5826 56.3994 4.53733C56.9489 4.49432 57.5452 4.47168 58.1863 4.47168L58.1933 4.47394ZM61.1635 13.1666C60.7409 13.0081 60.2783 12.8791 59.7759 12.7818C59.271 12.6844 58.7263 12.6369 58.1393 12.6369C57.1132 12.6369 56.3055 12.8044 55.7208 13.1394C55.1338 13.4745 54.8403 13.9612 54.8403 14.5973V14.6493C54.8403 15.1972 55.0822 15.6205 55.5682 15.9215C56.0543 16.2226 56.6812 16.372 57.4513 16.372C58.5502 16.372 59.4448 16.1434 60.1328 15.6839C60.8207 15.2243 61.1635 14.6244 61.1635 13.8819V13.1666Z" fill="#004A8D"/>
  <path d="M66.0879 11.7639C66.0879 10.58 66.2945 9.5681 66.7054 8.72826C67.1187 7.88842 67.6493 7.18214 68.2997 6.60716C68.9501 6.03217 69.6874 5.5817 70.5116 5.25572C71.3357 4.92975 72.1528 4.68979 72.9582 4.54039C73.7636 4.39098 74.5243 4.32081 75.2405 4.3276C75.9543 4.33665 76.5413 4.39325 76.9991 4.49964V7.49453C76.5037 7.42436 75.9003 7.43341 75.1841 7.5217C74.4703 7.60998 73.773 7.81824 73.0944 8.14422C72.4158 8.47246 71.8382 8.92973 71.3615 9.52282C70.8849 10.1159 70.6477 10.8607 70.6477 11.7616C70.6477 12.6626 70.8849 13.4368 71.3615 14.0276C71.8382 14.6207 72.4111 15.0734 73.0803 15.3926C73.7495 15.7118 74.4445 15.9088 75.17 15.988C75.8932 16.0672 76.5037 16.0536 76.9991 15.9472V19.0214C76.5413 19.1278 75.9543 19.1844 75.2405 19.1934C74.5267 19.2025 73.7659 19.1323 72.9582 18.9806C72.1505 18.8312 71.3357 18.5913 70.5116 18.2653C69.6874 17.9393 68.9478 17.4888 68.2997 16.9138C67.6493 16.3389 67.1163 15.6326 66.7054 14.7927C66.2922 13.9529 66.0879 12.941 66.0879 11.7571V11.7639Z" fill="#004A8D"/>
</svg>