<svg width="250" height="52" viewBox="0 0 250 52" fill="none" xmlns="http://www.w3.org/2000/svg">
<path d="M8.21768 15.9917L7.38485 21.9695H7.93831C9.16122 17.7672 12.7667 15.2773 17.0995 15.2773C23.8149 15.2773 28.3692 19.7581 28.3692 28.4463C28.3692 37.1346 23.8149 41.6153 17.0995 41.6153C12.7667 41.6153 9.16122 39.1254 7.93831 34.9231H7.38485L8.10699 40.9009V51.6903H0V15.9917H8.21768ZM7.82762 28.4411C7.82762 32.8692 10.3261 35.1332 14.2689 35.1332C18.2117 35.1332 20.2095 33.0321 20.2095 28.4411C20.2095 23.85 18.2117 21.7489 14.2689 21.7489C10.3261 21.7489 7.82762 23.9604 7.82762 28.4411Z" fill="white"/>
<path d="M29.1484 28.3827C29.1484 20.1409 34.1455 15.2715 42.6952 15.2715C52.0778 15.2715 57.0749 20.8606 56.0206 30.1004H36.3119C36.7547 34.4182 38.589 35.9626 42.9166 35.9626C45.5258 35.9626 47.1335 34.912 47.6923 33.084H55.4092C54.5184 38.2318 49.8007 41.6042 43.0273 41.6042C33.9768 41.6042 29.1484 37.0132 29.1484 28.3827ZM48.8624 25.7825C48.8045 22.2946 46.8067 20.6347 42.8112 20.6347C38.8157 20.6347 36.8127 22.2368 36.3172 25.7825H48.8624Z" fill="white"/>
<path d="M65.9521 15.9911L65.0613 24.0701H65.562C66.9483 19.0378 70.7804 15.2715 76.3309 15.2715V23.2401C70.4484 23.2401 65.8941 24.9 65.8941 31.5397V40.8898H57.7871V15.9911H65.9468H65.9521Z" fill="white"/>
<path d="M78.7773 22.1317V15.991L83.8271 16.2694V8.91016H91.7127V16.322L99.3769 15.991V22.1317L91.7127 21.8007V31.1509C91.7127 33.8088 92.4348 34.6388 95.044 34.6388C96.3196 34.6388 97.9853 34.3078 99.3769 33.8088V40.7269C97.6532 41.1681 95.2127 41.6146 92.8249 41.6146C86.605 41.6146 83.8324 38.9566 83.8324 31.9861V21.8638L78.7826 22.1422L78.7773 22.1317Z" fill="white"/>
<path d="M98.9355 28.3827C98.9355 20.1409 103.933 15.2715 112.482 15.2715C121.865 15.2715 126.862 20.8606 125.808 30.1004H106.099C106.542 34.4182 108.376 35.9626 112.704 35.9626C115.313 35.9626 116.921 34.912 117.479 33.084H125.196C124.305 38.2318 119.588 41.6042 112.814 41.6042C103.764 41.6042 98.9355 37.0132 98.9355 28.3827ZM118.644 25.7825C118.586 22.2946 116.589 20.6347 112.593 20.6347C108.598 20.6347 106.594 22.2368 106.099 25.7825H118.644Z" fill="white"/>
<path d="M127.634 40.8845V15.9911H135.794L134.85 22.4627H135.404C137.238 18.0345 140.791 15.2715 145.287 15.2715C151.17 15.2715 154.39 18.6491 154.39 26.1712V40.8898H146.283V28.2198C146.283 23.571 144.897 22.0214 141.787 22.0214C137.734 22.0214 135.736 24.7319 135.736 29.1601V40.8898H127.629L127.634 40.8845Z" fill="white"/>
<path d="M173.86 41.4608C173.227 41.0248 172.768 40.4418 172.489 39.7116C172.21 38.9815 172.252 38.2986 172.61 37.6682C172.969 37.1167 173.97 35.94 175.615 34.1436C177.26 32.3471 178.282 30.8132 178.677 29.5473C178.836 28.9957 178.319 27.215 177.133 24.2104C174.555 17.8071 174.318 12.2758 176.421 7.61124C177.375 5.51534 178.72 3.77664 180.464 2.39513C182.209 1.01362 184.075 0.220439 186.057 0.0260823C187.364 -0.094734 188.577 0.20468 189.684 0.913819C190.79 1.62296 191.386 2.47393 191.47 3.46147C191.55 4.33345 191.36 5.0636 190.906 5.65717C190.448 6.25075 189.826 6.58693 189.03 6.66573H188.466C188.329 6.66573 188.139 6.64471 187.902 6.60794C187.665 6.57117 187.507 6.55016 187.427 6.55016C186.552 6.51339 185.751 6.79705 185.019 7.41163C184.286 8.02622 183.717 8.79314 183.321 9.7229C182.926 10.6527 182.626 11.5719 182.43 12.4807C182.23 13.3894 182.135 14.1984 182.135 14.9128C182.135 16.9666 182.689 19.4355 183.801 22.3246C184.834 25.014 185.424 26.9891 185.588 28.2498C185.746 29.5158 185.509 30.8763 184.876 32.3418C183.089 36.0188 180.475 39.118 177.022 41.6499C176.585 41.9283 176.058 42.0439 175.446 42.0071C174.83 41.9703 174.308 41.7917 173.87 41.4713L173.86 41.4608Z" fill="white"/>
<path d="M191.38 42.7106C190.626 41.1715 190.268 39.312 190.31 37.1373C190.347 34.9626 190.805 32.0578 191.68 28.4228C192.872 23.3643 193.921 19.5297 194.833 16.9242C195.033 16.3307 195.128 15.9682 195.128 15.8264C195.128 15.6846 195.028 15.6163 194.833 15.6163C194.237 15.4167 193.794 15.0647 193.494 14.5499C193.199 14.0352 193.046 13.5256 193.046 13.0108C193.046 11.6293 193.562 10.7574 194.59 10.4002C195.065 10.1638 197.415 10.043 201.638 10.043C205.86 10.043 209.302 10.2216 211.958 10.5788C213.466 10.7784 214.478 11.1041 214.995 11.5558C215.511 12.0128 215.806 12.6221 215.885 13.3943C215.965 14.1665 215.827 14.8441 215.469 15.4377C215.111 16.0313 214.636 16.3674 214.041 16.4462C212.575 16.525 210.414 16.5145 207.557 16.4147C204.7 16.3149 202.876 16.3044 202.086 16.3832C201.964 16.504 201.522 17.9853 200.747 20.8271C199.972 23.6742 199.587 25.2553 199.587 25.5705C199.587 25.7701 199.708 25.8752 199.946 25.8962C200.183 25.9172 200.858 25.9067 201.97 25.8646C203.477 25.8279 204.516 25.8646 205.09 25.9855C205.665 26.1063 206.15 26.4004 206.545 26.8732C207.062 27.4248 207.209 28.2074 206.993 29.216C206.777 30.2245 206.271 30.9074 205.475 31.2594C205.001 31.459 203.651 31.6533 201.432 31.8529C201.195 31.895 200.894 31.9107 200.541 31.9107C199.271 32.0315 198.528 32.1576 198.312 32.2942C198.095 32.4307 197.927 32.914 197.806 33.744C197.763 34.0224 197.726 34.2167 197.684 34.3375C197.563 35.4459 197.495 36.4597 197.473 37.3895C197.452 38.3192 197.674 39.0967 198.127 39.7323C198.58 40.3626 199.287 40.683 200.241 40.683C201.195 40.683 202.36 40.4939 203.63 40.121C204.9 39.748 206.983 38.9863 209.876 37.8412C211.542 37.1688 212.781 36.8222 213.593 36.8011C214.404 36.7801 215.126 37.0901 215.764 37.7204C216.518 38.5504 216.724 39.5011 216.386 40.5675C216.049 41.6338 215.184 42.4427 213.798 42.9995C209.318 45.211 205.77 46.5978 203.15 47.1493C200.61 47.6641 198.264 47.5643 196.103 46.8552C193.942 46.146 192.366 44.7593 191.375 42.7054L191.38 42.7106Z" fill="white"/>
<path d="M223.293 20.6349C223.925 19.017 224.742 17.3676 225.733 15.6867C226.724 14.0058 227.926 12.3353 229.334 10.6754C230.741 9.01551 232.396 7.64977 234.299 6.58343C236.202 5.51709 238.168 4.92352 240.187 4.8027C243.044 4.68189 245.379 5.81126 247.208 8.18031C249.032 10.5494 249.685 13.2756 249.169 16.359C248.573 19.9573 246.749 23.1353 243.697 25.9035C242.664 26.8911 240.84 28.136 238.226 29.6383C238.068 29.7171 238.284 29.9535 238.88 30.3475C239.712 30.8623 241.594 31.8708 244.53 33.3731C246.712 34.4815 248.057 35.2011 248.573 35.5373C249.09 35.8735 249.464 36.278 249.701 36.7507C250.139 37.7015 250.096 38.668 249.58 39.6556C249.106 40.6063 248.42 41.1369 247.529 41.2577C246.639 41.3785 245.358 41.1211 243.692 40.4855C239.844 38.9832 235.88 36.8505 231.795 34.0823C230.129 32.9739 229.276 32.4224 229.239 32.4224C229.196 32.5799 229.107 33.0527 228.97 33.8459C228.833 34.6391 228.712 35.2904 228.611 35.8C228.511 36.3147 228.353 36.9241 228.137 37.6385C227.921 38.3476 227.689 38.9254 227.452 39.3562C227.014 40.1073 226.34 40.6431 225.428 40.9583C224.516 41.2735 223.662 41.2945 222.871 41.0161C220.926 40.2649 220.056 38.4264 220.251 35.5058C220.41 33.2943 220.779 30.7257 221.353 27.7998C221.928 24.874 222.571 22.4839 223.288 20.6296L223.293 20.6349ZM240.303 12.2145C239.428 12.2145 238.289 12.8081 236.882 13.9952C235.474 15.1824 234.352 16.4851 233.519 17.9086C232.37 19.8049 231.495 21.8431 230.899 24.0125C230.662 24.7637 230.741 25.0788 231.136 24.9633C235.538 23.8181 238.927 21.3861 241.31 17.6723C242.142 16.3275 242.427 15.0826 242.174 13.9375C241.916 12.7923 241.294 12.2198 240.303 12.2198V12.2145Z" fill="white"/>
<path d="M167.812 36.6026C167.812 37.8317 167.401 38.856 166.589 39.665C165.772 40.4792 164.728 40.8837 163.458 40.8837C162.188 40.8837 161.197 40.4739 160.385 39.665C159.568 38.8508 159.162 37.8317 159.162 36.6026C159.162 35.3734 159.568 34.2913 160.385 33.4823C161.202 32.6681 162.225 32.2637 163.458 32.2637C164.692 32.2637 165.777 32.6734 166.589 33.4823C167.406 34.2965 167.812 35.3366 167.812 36.6026Z" fill="white"/>
</svg>
